<?xml version="1.0" encoding="utf-8"?>
<!-- Generator: Adobe Illustrator 23.1.0, SVG Export Plug-In . SVG Version: 6.00 Build 0)  -->
<svg version="1.1" xmlns="http://www.w3.org/2000/svg" xmlns:xlink="http://www.w3.org/1999/xlink" x="0px" y="0px"
	 viewBox="0 0 1920 1080" style="enable-background:new 0 0 1920 1080;" xml:space="preserve">
<style type="text/css">
	.st0{fill:#F4E8D8;}
	.st1{fill:#866694;}
	.st2{fill:#288453;}
	.st3{fill:#1D2538;}
	.st4{fill:#C73F37;}
	.st5{fill:#634874;}
	.st6{fill:#F6874E;}
	.st7{fill:#F6BE4A;}
	.st8{fill:none;stroke:#F4E8D8;stroke-width:2;stroke-miterlimit:10;}
	.st9{fill:#33A86D;}
	.st10{fill:#273150;}
	.st11{fill:#121721;}
	.st12{fill:#992C29;}
	.st13{fill:#C93F37;}
	.st14{fill:#29ACE4;}
	.st15{fill:#229BC6;}
	.st16{fill:#CE6D3E;}
	.st17{fill:#EC5E4D;}
	.st18{fill:#48598B;}
	.st19{fill:#102441;}
	.st20{fill:#D09435;}
	.st21{fill:#FEED7F;}
	.st22{fill:#F7BC4B;}
	.st23{fill:#273252;}
	.st24{fill:none;stroke:#273252;stroke-linecap:round;stroke-linejoin:round;stroke-miterlimit:10;}
</style>
<g id="bg">
	<path class="st0" d="M1308.27,396.02c0,0-288.55-3.59-348.68,104.01c-60.13,107.6-360.79,158.24-471.56,107.6
		C377.26,557,355.11,477.88,481.7,408.25c158.75-87.31,140.79,28.84,155.08,9.49c79.85-108.17,227.61-238.89,332.31-212.04
		c123.43,31.65,31.65,148.75,31.65,148.75S1188.01,297.91,1308.27,396.02z"/>
	<path class="st0" d="M757.04,669.35c0,0,261.89-35.08,341.01-152.18s383.74-35.6,383.74-35.6s-138.46,16.62-198.59,92.57
		c0,0,68.84-30.07,135.3-14.24c0,0-47.47,30.86-102.07,87.82C1261.96,704.56,861.48,738.98,757.04,669.35z"/>
</g>
<g id="sword_x2F_rock">
	<g>
		<g>
			<path class="st1" d="M983.69,923.99c0,0,19.36-16.04-26.06-14.16c-44.88,1.86-92.84,8.13-72.98,19.42
				C904.52,940.54,965.07,933.63,983.69,923.99z"/>
			<path class="st1" d="M1080.1,908.06c0,0,28.72-23.8-38.66-21.01c-66.58,2.76-137.73,12.06-108.26,28.82
				C962.65,932.62,1052.49,922.37,1080.1,908.06z"/>
			<path class="st1" d="M1062,941.65c0,0,13.16-10.9-17.71-9.63c-30.5,1.26-63.1,5.53-49.6,13.2
				C1008.19,952.9,1049.35,948.21,1062,941.65z"/>
		</g>
		<path class="st1" d="M1429.57,896.43c11.08-6.33-77.54-3.96-121.93-7.39c-3.06-0.24-6.48,0.29-10.14,0.37
			c-20.56-3.18-131.72-7.18-174.92-4.85c-43.04,2.32-89.67,16.42-47.34,27.67c31.74,8.43,51.47,12.86,123.3,8.73
			c14.68-0.85,54.46-7.8,86.22-14.63c11.23-0.06,47.34,2.44,60.3,1.69C1373.93,906.35,1420.13,901.82,1429.57,896.43z"/>
		<path class="st2" d="M1404.53,853.87c0,0,11.26-32.64,31.52-31.52c20.26,1.13,9,21.39,9,21.39s9-13.51,20.26-2.25
			c11.26,11.26,0,19.13,0,19.13s9-5.63,10.13,4.5c1.13,10.13-43.9,24.76-60.78,20.26C1397.78,880.88,1404.53,853.87,1404.53,853.87z
			"/>
		<path class="st1" d="M898.67,822.85c-129.4,2.63-43.52,24.53-43.52,24.53s-465.6-6.49-332.31,19.78c0,0-82.06,14.47-104.44,28.48
			c-14.55,9.11,121.75,42.34,197.8,39.56c108.4-3.96,122.37-16.35,121.85-26.9c-0.65-13.03-76.79-14.23-53.8-20.57
			c33.89-9.35,57.82,3.98,188.31-11.08c82.29-9.49,144.79-6.33,144.79-6.33s-64.76,19.85-1.46,14.75
			c122.72-9.89,148.5,2.44,163.66-17.92C1202.03,836.97,1058.91,819.59,898.67,822.85z"/>
		<g>
			<g>
				<path class="st3" d="M1301.03,315.72l26.6-130.78c0.16-0.77,9.21-2.25,9.21-2.25l11.62,3.49l-4.31,153.77
					c-0.06,2.32-2.73,3.56-4.84,2.24l-36.6-22.85C1301.44,318.55,1300.76,317.08,1301.03,315.72z"/>
				<path class="st3" d="M1314.04,318.38l21.79-135.01c0.31-1.47,17.63,3.25,17.58,4.8l-4.63,147.36c-0.14,4.44-5.23,6.78-9.22,4.29
					l-22.46-14.64C1314.71,323.69,1313.47,320.93,1314.04,318.38z"/>
				<path class="st4" d="M1312.84,257.7c0,0-1.97-2.56,5.56-3.01c7.56-0.46,32.32,20.85,32.32,20.85l-1.75,63.55L1300.57,318
					L1312.84,257.7z"/>
				<path class="st0" d="M1302.76,307.17c0,0,21.35-104.23,22.36-109.44c1.19-6.17,6.68-6.51,6.03,1.56
					c-0.43,5.35-19.97,110.38-19.97,110.38L1302.76,307.17z"/>
				<g>
					<path class="st4" d="M1316.04,241.74c0,0,1.66-1.71,5.03-1.41c13.8,1.23,30,22.77,30,22.77l-0.42,12.7
						c0,0-22-22.63-27.31-23.99c-7.55-1.93-9.99,3.67-9.99,3.67L1316.04,241.74z"/>
					<path class="st3" d="M1347.87,291.14c0,0-17.57-20.8-33.01-18.94c-6.5,0.78-4.46,2.94-4.46,2.94s-1.29,0.92,4.08,0.79
						C1322.46,275.74,1347.87,291.14,1347.87,291.14z"/>
					<path class="st3" d="M1349.82,304.7c-7.56-12.62-32.62-20.32-32.62-20.32s28.23,16.58,32.35,23.92L1349.82,304.7z"/>
					<path class="st3" d="M1305.39,299.58c0,0,3.1-4.69,5.71-3.7c2.61,0.99,19.82,11.56,23.66,16.79
						c3.79,5.17-23.1-12.12-24.48-12.7C1308.89,299.4,1305.39,299.58,1305.39,299.58z"/>
					<path class="st3" d="M1349.24,324.88c0,0-2.42-3.88-7.4-5.33c-4.98-1.45,7.39,9.13,7.39,9.13L1349.24,324.88z"/>
				</g>
			</g>
			<path class="st5" d="M1175.2,890.49c126.61-2.54,214.81,4.38,238.55-5.11c0,0,22.15-53.04-4.75-91.02
				c-55.97-58.04-94.95-80.7-182.77-71.21c-87.82,9.49-161.67,64.35-185.41,116.57c-23.74,52.22,2.64,53.14,10.95,54.33
				C1060.08,895.24,1135.77,891.29,1175.2,890.49z"/>
			<path class="st0" d="M1295.15,733.1c-43.52-15.24-70.36-17.22-118.98,7.71c-48.62,24.94-59.74,31.84-66.8,65.49
				c-7.06,33.66,40.01,29.65,73.73,21.68C1216.84,820.02,1344.99,750.55,1295.15,733.1z"/>
			<path class="st0" d="M1375.36,806.14c-45.29,18.25-77.82,23.48-125.82-3.42c-51.1-28.63-61.8-36.7-37.05-68.05
				c19.25-24.39,87.79-6.58,114.26,2.29C1350.95,745.07,1412.56,791.15,1375.36,806.14z"/>
			<path class="st6" d="M1222.27,288.78l181.76,105.41c1.96,1.14,17.03-7.5,18.41-9.47s-4.53-16.22-7.68-18.09l-175.46-105.14
				c-2.57-1.53-15.25,1.77-15.25,1.77L1222.27,288.78z"/>
			<path class="st0" d="M1307.73,313.7l10.68,18.99l-83.11-49.77c-2.34-1.45-3.94-6.53-3.94-6.53l-3.56-12.02L1307.73,313.7z"/>
			<path class="st4" d="M1422.45,384.71c0,0-1.3,1.47-4.22,3.23c-4.89,2.94-11.27,7.91-14.9,6
				c-3.63-1.91-178.15-103.05-181.05-105.16c-2.2-1.6-3.16-16.62-3.16-18.46c0-1.85,4.95-7.05,4.95-7.05s1.65,15.1,4.55,18.4
				c2.9,3.3,178.68,105.23,178.68,105.23C1409.66,387.68,1417.7,385.97,1422.45,384.71z"/>
			<path class="st7" d="M1224.18,733.51l70.4-398.15c0.16-0.88,0.47-1.73,0.93-2.5h0c2.42-4.07,6.09-4.72,11.44-1.65
				c0,0,29.53,17.24,32.17,18.83c2.64,1.58,5.78,4.67,5.41,8.97l-33.01,384.96c-0.27,3.18-2.54,5.82-5.64,6.58l-33.3,8.15
				c-1.45,0.36-2.98,0.26-4.38-0.26l-35.55-13.35c-0.84-0.32-1.62-0.78-2.3-1.38l-3.76-3.31
				C1224.64,738.67,1223.72,736.06,1224.18,733.51z"/>
			<path class="st6" d="M1294.99,333.72L1294.99,333.72c1.66-3.4,5.26-5.41,4.92-3.31l-67.99,410.74c-0.25,1.49-2.04,2.14-3.18,1.13
				l-4.49-3.96c-0.5-0.44-0.74-1.12-0.62-1.78l71.11-402.18C1294.79,334.14,1294.87,333.92,1294.99,333.72z"/>
			<line class="st8" x1="1270.93" y1="758.36" x2="1325.13" y2="342.19"/>
			<polygon class="st0" points="1285.53,445.18 1320.91,529.04 1323.38,505.49 1289.28,416.59 			"/>
			<polygon class="st0" points="1290.93,404.2 1326.31,497 1333.85,438.51 1299.75,349.61 			"/>
			<path class="st0" d="M1393.18,790.41c0,0,4.75,18.2-34.02,30.86C1359.15,821.26,1412.16,820.47,1393.18,790.41z"/>
			<polyline class="st8" points="1325.92,578.1 1315.64,574.93 1307.73,589.18 1314.05,602.63 1293.48,627.15 1287.15,635.66 			"/>
			<path class="st5" d="M1114.54,813.27c0,0,21.09,24.12,59.48,18.8c16.6-1.39,66.26-17.61,66.26-17.61
				S1150.07,831.31,1114.54,813.27z"/>
			<polygon class="st4" points="1365.48,363.15 1376.56,358.41 1382.1,373.44 			"/>
			<path class="st3" d="M1343.39,130.14c-15.82-3.61-29.04,9.07-29.33,27.46c-0.27,17.46,11.33,33.35,25.75,36.26
				c14.25,2.88,26.93-7.82,28.55-24.61C1370.06,151.58,1359,133.7,1343.39,130.14z M1339.71,176.78
				c-5.46-1.77-10.11-9.41-10.37-17.22c-0.27-7.99,4.15-13.03,9.85-11.08c5.65,1.93,10.23,9.96,10.26,17.77
				C1349.48,173.89,1345.14,178.54,1339.71,176.78z"/>
			<g>
				<path class="st7" d="M1345.96,141.43c-8.98-2.22-16.51,5.09-16.75,16.01c-0.05,2.14,0.2,4.26,0.68,6.29
					c-0.31-1.36-0.51-2.76-0.55-4.17c-0.27-7.99,4.15-13.03,9.85-11.08c5.65,1.93,10.23,9.96,10.26,17.77
					c0.03,7.64-4.32,12.29-9.74,10.53c-3.38-1.1-6.45-4.45-8.36-8.69c2.61,5.96,7.36,10.57,12.85,11.84
					c8.43,1.94,15.77-4.65,16.48-14.98C1361.43,154.29,1354.87,143.63,1345.96,141.43z"/>
				<path class="st7" d="M1330.14,164.69c0.05,0.18,0.09,0.36,0.14,0.54C1330.23,165.05,1330.19,164.87,1330.14,164.69z"/>
				<path class="st7" d="M1330.82,166.78c0.1,0.28,0.22,0.55,0.33,0.82C1331.04,167.33,1330.92,167.06,1330.82,166.78z"/>
			</g>
			<g>
				<path class="st0" d="M1323.99,176.61c-0.45,0-0.9-0.2-1.19-0.59c-9.92-12.94-3.06-30.67-2.76-31.42
					c0.3-0.77,1.17-1.15,1.95-0.84c0.77,0.3,1.15,1.18,0.84,1.95c-0.07,0.17-6.52,16.91,2.36,28.49c0.5,0.66,0.38,1.6-0.28,2.1
					C1324.63,176.51,1324.31,176.61,1323.99,176.61z"/>
			</g>
			<g>
				<path class="st0" d="M1334.58,184.96c-0.31,0-0.62-0.09-0.88-0.29c-2.05-1.5-3.74-3.18-5.01-5.01
					c-0.47-0.68-0.31-1.61,0.37-2.09c0.68-0.47,1.61-0.31,2.09,0.37c1.08,1.55,2.54,3,4.32,4.3c0.67,0.49,0.82,1.43,0.33,2.1
					C1335.5,184.75,1335.05,184.96,1334.58,184.96z"/>
			</g>
		</g>
		<g>
			<path class="st9" d="M1409.52,899.85c8.17-4.53-21.5-45.28-42.66-55.26s-7.79,38.65,7.97,49.81
				C1390.59,905.57,1401.35,904.39,1409.52,899.85z"/>
			<path class="st9" d="M1393.06,902.67c0,0-40.98-19.92-62.45-19.19c-21.46,0.73,4.86,17.56,4.86,17.56s-22.65-4.66-28.35,7.24
				S1393.06,902.67,1393.06,902.67z"/>
			<path class="st9" d="M1433.06,893.97c2.06-4.41,0.49-17.41-18.33-15.26c-18.82,2.15-23.33,19.44-16.75,23.65
				C1404.56,906.56,1431,898.38,1433.06,893.97z"/>
		</g>
		<path class="st6" d="M1268.56,511.31l-1.36,14.4c-0.23,0.91,1.29,1.63,2.79,1.32l11.55-2.38c1.16-0.24,1.72-1,1.21-1.65
			l-10.19-12.02C1271.69,509.88,1268.87,510.11,1268.56,511.31z"/>
		<polygon class="st6" points="1321.57,629.4 1311.68,639.29 1319.59,649.57 		"/>
		<polygon class="st6" points="1244.82,662.23 1253.53,674.1 1242.05,680.43 		"/>
		<g>
			<path class="st9" d="M1363.23,949.87c0,0-6.89-4.46-19.96-2.76c-12.91,1.68-17.7,4.56-8.43,7.19
				C1340.79,955.98,1358.66,956.11,1363.23,949.87z"/>
			<path class="st2" d="M1313.39,923.76c0,0-6.89-4.46-19.96-2.76c-12.91,1.68-17.7,4.56-8.43,7.19
				C1290.95,929.87,1308.81,930,1313.39,923.76z"/>
			<path class="st9" d="M1343.06,938c0,0-6.89-4.46-19.96-2.76c-12.91,1.68-17.7,4.56-8.43,7.19
				C1320.62,944.11,1338.48,944.25,1343.06,938z"/>
			<path class="st9" d="M1314.57,943.94c0,0-6.89-4.46-19.96-2.76c-12.91,1.68-17.7,4.56-8.43,7.19
				C1292.13,950.05,1310,950.18,1314.57,943.94z"/>
		</g>
		<g>
			<path class="st2" d="M1215.97,935.41c0,0-7.32-5.38-21.88-4.38c-14.38,0.99-19.86,3.87-9.79,7.38
				C1190.76,940.67,1210.5,942.01,1215.97,935.41z"/>
			<path class="st2" d="M1270.17,938.67c0,0-7.32-5.38-21.88-4.38c-14.38,0.99-19.86,3.87-9.79,7.38
				C1244.97,943.93,1264.7,945.27,1270.17,938.67z"/>
			<path class="st2" d="M1239.67,926.91c0,0-5.74-4.22-17.14-3.43c-11.27,0.78-15.56,3.03-7.67,5.78
				C1219.92,931.03,1235.38,932.08,1239.67,926.91z"/>
			<path class="st2" d="M1240.85,939.83c0,0-7.32-5.38-21.88-4.38c-14.38,0.99-19.86,3.87-9.79,7.38
				C1215.65,945.09,1235.39,946.43,1240.85,939.83z"/>
		</g>
	</g>
	<g>
		<g>
			<path class="st2" d="M1310.89,675.15c0,0-1.58-12.66-7.38-8.97s-5.8,7.38-3.16,12.13
				C1302.98,683.07,1308.78,679.9,1310.89,675.15z"/>
			<path class="st9" d="M1304.56,656.16c0,0-1.58-12.66-7.38-8.97c-5.8,3.69-5.8,7.38-3.16,12.13S1302.45,660.91,1304.56,656.16z"/>
			<path class="st9" d="M1307.73,639.55c0,0-1.58-12.66-7.38-8.97c-5.8,3.69-5.8,7.38-3.16,12.13
				C1299.81,647.46,1305.62,644.3,1307.73,639.55z"/>
			<path class="st9" d="M1326.71,564.38c0,0-1.58-12.66-7.38-8.97c-5.8,3.69-5.8,7.38-3.16,12.13
				C1318.8,572.3,1324.6,569.13,1326.71,564.38z"/>
			<path class="st2" d="M1333.04,550.14c0,0-1.58-12.66-7.38-8.97c-5.8,3.69-5.8,7.38-3.16,12.13S1330.93,554.89,1333.04,550.14z"/>
			<path class="st2" d="M1314.58,693.09c0,0-1.3-12.66-6.04-8.97c-4.75,3.69-4.75,7.38-2.59,12.13
				C1308.11,701,1312.86,697.84,1314.58,693.09z"/>
			<path class="st2" d="M1307.2,690.45c0,0-1.3-12.66-6.04-8.97c-4.75,3.69-4.75,7.38-2.59,12.13
				C1300.72,698.36,1305.47,695.2,1307.2,690.45z"/>
			<path class="st2" d="M1318.38,669.63c0,0-1.05-10.26-4.9-7.27c-3.85,2.99-3.85,5.98-2.1,9.83
				C1313.13,676.04,1316.98,673.48,1318.38,669.63z"/>
			<path class="st2" d="M1302.98,711.75c0,0-0.88-8.57-4.09-6.07c-3.21,2.5-3.21,5-1.75,8.21S1301.81,714.96,1302.98,711.75z"/>
			<path class="st2" d="M1322.76,540.65c0,0-1.58-12.66-7.38-8.97c-5.8,3.69-5.8,7.38-3.16,12.13
				C1314.85,548.56,1320.65,545.4,1322.76,540.65z"/>
		</g>
		<g>
			<path class="st2" d="M1251.15,735.42c0,0-15.82-5.93-21.76,1.98c-1.96,2.62-2.84,5.19-3.14,7.47c-0.61,4.6,1.17,7.96,1.17,7.96
				s-14.64-15.03-24.92-7.12c-10.29,7.91,3.56,17.41,3.56,17.41s-9.89-3.96-18.2-0.4c-8.31,3.56-2.77,14.24-2.77,14.24
				s5.93,7.52,14.24,2.37c8.31-5.14,7.91-6.73,7.91-6.73s5.54,1.98,14.24-4.35s9.1-9.1,9.1-9.1s7.52,6.33,12.26,2.37
				c4.75-3.96,6.73-8.7,6.73-8.7s1.58,8.31,8.7,8.31C1265.4,761.13,1275.68,725.13,1251.15,735.42z"/>
			<path class="st2" d="M1338.98,761.05c0,0-1.58-7.53-7.38-5.33c-5.8,2.2-5.8,4.39-3.16,7.22S1336.87,763.87,1338.98,761.05z"/>
			<path class="st2" d="M1350.05,770.54c0,0-1.58-7.53-7.38-5.33c-5.8,2.2-5.8,4.39-3.16,7.22S1347.95,773.37,1350.05,770.54z"/>
			<path class="st2" d="M1335.42,777.66c0,0-1.58-7.53-7.38-5.33s-5.8,4.39-3.16,7.22C1327.51,782.37,1333.31,780.49,1335.42,777.66
				z"/>
			<path class="st2" d="M1362.71,789.14c0,0-1.58-7.53-7.38-5.33c-5.8,2.2-5.8,4.39-3.16,7.22
				C1354.8,793.84,1360.6,791.96,1362.71,789.14z"/>
			<path class="st2" d="M1315.64,759.95c0,0,11.08-5.54,6.33-13.45c-4.75-7.91-18.2-7.52-20.57-0.4c0,0-3.96-24.92-13.05-23.34
				c-9.1,1.58-12.26,9.1-9.1,20.97c0,0-5.54-7.52-13.45,1.19c-7.91,8.7,2.37,15.03,2.37,15.03s-10.29-7.91-12.66,3.96
				c-2.37,11.87,7.91,20.18,16.22,16.22c8.31-3.96,10.68-6.73,10.68-6.73S1311.68,786.45,1315.64,759.95z"/>
		</g>
		<path class="st9" d="M1299.29,759.53c0,0-2.33-9.73-10.89-6.89c-8.56,2.84-8.56,5.68-4.67,9.32
			C1287.61,765.61,1296.17,763.18,1299.29,759.53z"/>
		<path class="st9" d="M1291.9,751.62c0,0-1.98-9.73-9.22-6.89c-7.25,2.84-7.25,5.68-3.95,9.32
			C1282.02,757.7,1289.27,755.27,1291.9,751.62z"/>
		<path class="st9" d="M1278.19,752.67c0,0-1.98-9.73-9.22-6.89c-7.25,2.84-7.25,5.68-3.95,9.32
			C1268.3,758.76,1275.55,756.32,1278.19,752.67z"/>
		<path class="st9" d="M1252.65,751.65c0,0,5.81-3.98,2.61-11.22c-3.07-6.94-8.11-4.37-10.13,0.11
			C1243.11,745.03,1248.25,750.7,1252.65,751.65z"/>
		<path class="st9" d="M1224.65,761.52c0,0-0.24-10.09-10.5-9.75s-10.96,3.09-7.5,7.73
			C1210.11,764.13,1220.28,764.18,1224.65,761.52z"/>
	</g>
</g>
<g id="dog">
	<g>
		<path class="st3" d="M1064.82,494.49c0,0-4.09-16.62-5.34-29.47c-1.2-12.3,5.97-7.3,13.52,1.25c7.91,8.97,15.56,25.05,17.67,28.75
			C1092.78,498.71,1072.74,507.15,1064.82,494.49z"/>
		<path class="st3" d="M925.04,680.43c-2.4-3.51-17.41-20.31-20.57-29.01c-3.16-8.7-9.76-29.54-0.26-40.62c0,0-13.45,0-19.78,28.48
			c-6.33,28.48,21.37,55.25,23.74,57.49C918.71,706.8,931.9,690.45,925.04,680.43z"/>
		<path class="st3" d="M1183.82,749.19c-2.95-5.95-13.96-8.73-13.96-8.73c-0.85-1.24-3.44-3.27-3.74-4.73
			c-4.08-19.8-7.91-37.72-9.3-42.4c-2.89-9.72-5.34-25.31-11.65-47.72c-6.31-22.41-30.98-5.31-26.18,17.03
			c3.42,15.93,28.4,80.76,29.23,81.76l10.96,11.65c2.82,3.42,7.6,5.67,12.55,3.47S1186.71,755.01,1183.82,749.19z"/>
		<path class="st3" d="M992.43,723.1c5.78-6.77,36.39-12.52,39.81,1.35c2.92,11.81-40.25,86.73-40.25,86.73l0.26,10.63
			c0,0,7.16,6.06,6.12,11.94c-0.25,1.38-7.61,3.27-13.6,4.59c-4.38,0.96-8-0.41-8.69-3.36l-0.86-3.72l-5.48-12.94l15.55-51.9
			C985.28,766.44,984.53,732.35,992.43,723.1z"/>
		<path class="st10" d="M1082.23,645.62c-13.19,1.85-52.22-13.45-58.55-35.6c-6.33-22.15-14.24-56.97-14.24-71.21
			c0,0-10.55-21.1-14.77-33.23s-1.58-14.24,5.27-11.08c6.86,3.16,22.15,18.46,22.15,18.46s20.04-24.79,45.89-27.43
			s40.09,7.91,48.53,18.99l1.12,0.53c0,0,24.2-0.53,37.38-2.11c13.19-1.58,19.52,2.11,21.1,16.35s1.32,17.93-2.9,25.85
			c-4.22,7.91-27.43,32.57-41.14,43.12c0,0,8.7,30.46,7.65,40.48C1138.67,638.76,1095.42,643.77,1082.23,645.62z"/>
		<path class="st3" d="M1060.34,614.23c0,0-30.33,17.93-36.66-4.22c-6.33-22.15-14.24-56.97-14.24-71.21c0,0-10.55-21.1-14.77-33.23
			s-1.58-14.24,5.27-11.08c6.86,3.16,22.15,18.46,22.15,18.46s20.04-24.79,45.89-27.43c0,0-20.18,25.98-24.53,40.22
			s13.98,57.89,13.98,57.89s27.76,8.45,27.43,11.6C1083.81,605.26,1060.34,614.23,1060.34,614.23z"/>
		<path class="st10" d="M1070.16,491.92c0,0-4.86-15.75-7.91-26.31c-3.43-11.87,5.04-8.69,12.59-0.13
			c7.91,8.97,14.97,18.79,17.08,22.48C1094.03,491.66,1074.52,501.42,1070.16,491.92z"/>
		
			<ellipse transform="matrix(0.6622 -0.7493 0.7493 0.6622 -4.975 994.0333)" class="st11" cx="1100.01" cy="502.53" rx="5.6" ry="8.4"/>
		<path class="st12" d="M1129.88,600.07c0,0,26.92,14.5,32.3,22.41l-16.75,5.93C1145.43,628.41,1132.27,616.54,1129.88,600.07z"/>
		
			<ellipse transform="matrix(0.6622 -0.7493 0.7493 0.6622 -30.5474 975.6035)" class="st11" cx="1066.78" cy="521.68" rx="6.75" ry="10.13"/>
		<path class="st10" d="M1088.56,591.81c0,0-44.38-7.88-67.25,18.99c-20.45,24.03-31.36,31.64-60.13,45.89
			c-18.08,8.95-40.43,8.06-53.01,32.44c-8.44,16.35-4.22,40.09,4.22,60.66c17.93,20.04,157.8-19.7,168.26-24.26
			c30.86-13.45,48.85-41.1,58.55-53.01c8.7-10.68,9.12-45.28-14.73-66.25C1115.77,598.62,1104,593.08,1088.56,591.81z"/>
		<path class="st3" d="M1081.44,598.14c-26.11-6.07-37.26-14.21-60.13,12.66c-20.45,24.03-31.36,31.64-60.13,45.89
			c-18.08,8.95-40.43,8.06-53.01,32.44c-8.44,16.35-4.22,40.09,4.22,60.66c17.93,20.04,157.8-19.7,168.26-24.26
			c0,0-36.4-4.75-41.14-18.2c-4.75-13.45,18.2-47.47,18.2-47.47C1065.62,636.91,1090.7,600.29,1081.44,598.14z"/>
		
			<ellipse transform="matrix(0.8067 -0.591 0.591 0.8067 -82.9317 784.0142)" class="st11" cx="1156.92" cy="518.77" rx="17.86" ry="13.31"/>
		<path class="st10" d="M1161.75,783.74c-4.77-6.92-18.08-8.49-18.08-8.49c-1.27-1.41-4.71-3.49-5.39-5.26
			c-9.27-24.03-17.82-45.77-20.5-51.38c-5.57-11.64-8.98-34.98-21.42-61.89c-12.44-26.91-48.65,20.28-32.35,38.97
			c13.64,15.65,54.5,87.12,55.68,88.22l15.29,12.66c4.04,3.79,10.05,5.76,15.23,2.16C1155.4,795.14,1166.43,790.52,1161.75,783.74z"
			/>
		<path class="st3" d="M911.2,736.39c9.12-14.1,36.48-4.48,41.79-0.78c5.59,3.88-3.78,37.74-4.06,42.31
			c-0.3,4.78-41.07,43.99-48.91,54.55c-8.47,11.41,2.11,22.07-3.22,27.35c-2.7,2.68-29.12,2.33-29.48-9.42
			c-0.34-11.1,6.72-30.3,6.82-31.2c0.2-1.77,33.47-45.53,34.03-47.91C908.72,768.96,908.49,740.58,911.2,736.39z"/>
		<path class="st3" d="M1104.12,595.51c0,0,29.54-1.05,27.96-7.25c10.62-7.98,25.78-24.33,25.78-24.33l-31.05,17.34L1104.12,595.51z
			"/>
		<g>
			<path class="st12" d="M1019.46,598.14c0,0-3.03,9.23-1.85,15.56c0,0,25.13,4.48,66.46,4.48c22.15,0,53.8-5.27,53.8-5.27
				l-3.16-16.68C1134.71,596.23,1070.63,608.16,1019.46,598.14z"/>
		</g>
		<g>
			<path class="st13" d="M1128.5,601.18c0,0,18.86-15.15,29.91-15.92l14.6,24.74C1173.01,610,1139.62,606.7,1128.5,601.18z"/>
			<path class="st12" d="M1128.5,601.18c9.64,6.1,44.5,8.82,44.5,8.82s-14.24-11.39-18.83-11.85S1128.5,601.18,1128.5,601.18z"/>
		</g>
	</g>
</g>
<g id="cape">
	<path class="st12" d="M680.3,305.05c16.62,1.19,57.01,36.93,85.45,67.2c36.79,39.16,81.98,80.72,100.48,89.01
		c22.95,10.29,48.66,23.74,59.34,23.74c0,0-49.45,52.67-69.63,70.47c-20.18,17.8-9.49-17.8-35.6,0
		c-26.11,17.8-70.42,70.37-70.42,70.37s-22.95-6.78-56.97-37.98c-44.44-40.75-115.12-220.35-105.23-251.6
		C597.62,305,664.47,300.7,680.3,305.05z"/>
	<path class="st14" d="M680.3,305.05c16.62,1.19,58.2,35,86.64,65.27c36.79,39.16,86.53,81.47,105.1,89.62
		c21.23,9.31,64.62,27.88,75.3,27.88l-20.97,15.38c0,0-47.61-2.86-85.45-44.31C795.14,408.75,719.26,321.77,680.3,305.05z"/>
	<path class="st15" d="M604.38,329c0,0-42.15,0.64-61.79-6.39c-19.64-7.03-14.11-81.79,24.96-91.64
		c44.64-11.26,98.28,12.79,127.95,32.12c29.67,19.33,17.62,48.24-25.32,61.86C626.61,338.76,604.38,329,604.38,329z"/>
	<path class="st12" d="M697.85,290.47c0,24-78.03,25.21-101.82,25.21c-23.79,0-43.08-19.46-43.08-43.46s19.29-43.46,43.08-43.46
		C619.82,228.76,697.85,266.47,697.85,290.47z"/>
	<path class="st13" d="M841.57,557.26c-1.45-2.11-24.4-31.12-32.31-39.03c-7.91-7.91,51.16,33.23,51.16,33.23s-6.16,6.61-11.21,8.57
		C844.47,561.88,843.02,559.37,841.57,557.26z"/>
</g>
<g id="left_arm">
	<path class="st6" d="M807.88,499.84l-10.29-1.98l-13.91,10.35c-2.41-2.87,1.46-22.87,5.2-23.13c5.8-0.41,18-1.25,25.42,3.06
		c5.15,2.99,21.6,16.51,18.44,19.68c-0.7,0.7-4.02,0.4-4.02,0.4c-0.75,0.37-3.56-0.26-4.62,0.13c-1.05,0.4-3.09,0.15-4.78-0.56
		L807.88,499.84z"/>
	<path class="st16" d="M715.09,345.9c0,0,19.78,45.91,23.99,55.82c7.84,18.45-8.3,27.68-19.37,18.45s-33.21-52.13-37.36-62.27
		C678.19,347.75,703.56,332.52,715.09,345.9z"/>
	<path class="st6" d="M720.79,358.37c0,0,14.75,34.35,18.38,43.61c4.29,10.95-8.37,17.34-14.04,10.64
		C718.21,404.45,712.6,347.83,720.79,358.37z"/>
	<path class="st13" d="M673.05,304.79c7.04-4.36,23.57,4.25,33.22,22.43c10.69,20.14,13.65,28.56,13.65,28.56
		s-11.68-2.01-17.44,3.18c-9.36,8.43-16.66,17.95-16.66,17.95s-10.8-21.86-16.56-36.56C663.93,326.69,663.96,310.43,673.05,304.79z"
		/>
	<path class="st16" d="M790.56,477.54c4.76,12.74-7.15,17.67-14.27,12.12c-7.12-5.54-21.14-25.63-37.52-43.44
		c-18.86-20.49-25.71-30.54-13.7-39.31c12.01-8.78,12.57-7.91,31.91,19.63C770.27,445.46,788.31,471.54,790.56,477.54z"/>
	<path class="st6" d="M775.51,458.14c-8.97,13.01-43.98-35.38-43.98-35.38c-11.14-14.34-9.96-14.37-4.55-17.87
		c10.95-5.54,11.14-4.75,24.07,13.12C761.24,432.09,778.33,454.04,775.51,458.14z"/>
	<path class="st16" d="M796.65,489.42l16.27,1.4c0.82,0.07,1.57,0.48,2.08,1.13l19.11,13.2c1.1,1.41,3.2,1.53,4.45,0.25v0
		c0.92-0.95,1.11-2.39,0.45-3.54l-16.96-15.64c-0.33-0.58-0.85-1.03-1.46-1.27l-29.81-11.98c-1.07-0.43-9.23-3.45-14.6,1.93
		c-5.37,5.38-2.58,11.15-2.04,12.31l2.82,12.59c0.03,0.06,0.05,0.11,0.08,0.16l9.66,17.86c0.52,0.97,1.54,1.56,2.64,1.55l2.16-0.03
		c1.99-0.02,3.39-1.96,2.78-3.86l-3.44-10.78c-0.16-0.51-0.18-1.06-0.06-1.59l2.74-11.45C793.86,490.26,795.19,489.3,796.65,489.42z
		"/>
</g>
<g id="under_skirt">
	<path class="st17" d="M754.94,563.25c0,0-2.96,13.46-75.37,21.55c-29.55,3.3-58.43,1.08-81.55-0.11
		c-19.45-1-55.35-8.56-71.72-14.51c-16.27-5.91-30.65-18.28,7.71-45.24C572.44,497.93,737.08,513.4,754.94,563.25z"/>
	<path class="st13" d="M564.64,541.33c0,0-11.13-5.89-7.57-13.01c3.56-7.12,13.25-7.52,13.25-7.52L564.64,541.33"/>
</g>
<g id="hair">
	<g>
		<path class="st10" d="M702.81,256.58c-2.2,31.07-29.53,35.76-61.12,38.58c-18.99,1.7-39.22-5.78-52.35-18.75
			c-8.71-8.6-14.3-19.62-14.32-31.97c-0.06-30.97,34.88-58.62,66.47-61.44C673.07,180.18,705.17,223.2,702.81,256.58z"/>
		
			<ellipse transform="matrix(0.5663 -0.8242 0.8242 0.5663 122.1759 597.4571)" class="st10" cx="628.77" cy="182.64" rx="28.96" ry="16.97"/>
		
			<ellipse transform="matrix(0.0783 -0.9969 0.9969 0.0783 382.1713 760.9348)" class="st10" cx="602.61" cy="173.78" rx="28.22" ry="14.48"/>
		
			<ellipse transform="matrix(0.3429 -0.9394 0.9394 0.3429 189.3571 698.5156)" class="st10" cx="593.98" cy="213.91" rx="32.81" ry="24.5"/>
		
			<ellipse transform="matrix(0.9025 -0.4306 0.4306 0.9025 -53.9549 277.417)" class="st10" cx="585.81" cy="257.89" rx="35.54" ry="35.18"/>
		
			<ellipse transform="matrix(0.7603 -0.6496 0.6496 0.7603 19.768 480.6496)" class="st10" cx="661.16" cy="213.54" rx="32.13" ry="38.03"/>
	</g>
	<g>
		<path class="st18" d="M702.55,254.73c-1.79,25.36-24.1,29.18-49.87,31.48c-15.5,1.38-32.01-4.72-42.72-15.3
			c-7.11-7.02-11.66-16.01-11.68-26.09c-0.05-25.27,28.46-47.83,54.24-50.14C678.28,192.39,704.47,227.5,702.55,254.73z"/>
		
			<ellipse transform="matrix(0.5663 -0.8242 0.8242 0.5663 117.8394 600.5732)" class="st18" cx="629.57" cy="188.32" rx="24.88" ry="14.59"/>
		
			<ellipse transform="matrix(0.0783 -0.9969 0.9969 0.0783 374.8775 772.7459)" class="st18" cx="605.35" cy="183.63" rx="19.24" ry="9.87"/>
		
			<ellipse transform="matrix(0.3429 -0.9394 0.9394 0.3429 194.4698 708.2445)" class="st18" cx="603.49" cy="215.12" rx="34.73" ry="21.05"/>
		
			<ellipse transform="matrix(0.9025 -0.4306 0.4306 0.9025 -52.1152 281.5287)" class="st18" cx="595.81" cy="255.88" rx="30.54" ry="30.23"/>
		
			<ellipse transform="matrix(0.7603 -0.6496 0.6496 0.7603 16.3695 479.904)" class="st18" cx="658.45" cy="217.77" rx="27.61" ry="32.68"/>
	</g>
</g>
<g id="right_leg">
	<g>
		<g>
			<path class="st10" d="M582.98,610.15c-0.05,12.43,3.24,42.97,19.78,43.77c16.22,0.79,22.67-11.04,28.09-29.67
				c7.73-26.56,43.34-151.98,1.98-155.42c-41.36-3.44-45.02,15-49.65,39.08C578.55,532,583.08,587.14,582.98,610.15z"/>
			<path class="st19" d="M584.96,630.58c0.58,2.59,11.47-16.62,11.47-16.62s-0.81-40.57,5.54-45.1c22.15-18.2,42.73-8.7,42.73-8.7
				c9.21-41.52,14.24-89.16-11.87-91.33c-41.36-3.44-45.02,15-49.65,39.08c-2.68,13.98-2.28,38.42-1.5,60.97
				C582.25,585.19,581.99,617.33,584.96,630.58z"/>
		</g>
		<path class="st16" d="M574.21,649.73c-32.38,60.77-23.92,118.41-25.91,190.66c-0.79,28.67,16.43,23.94,21.23,2.24
			c6.27-28.3,26.1-87.47,47.47-168.13C623.73,654.32,595.36,610.03,574.21,649.73z"/>
		<path class="st19" d="M578.46,638.65c9.33-19.32,27.17-23.54,40.56-17.18c8.79,4.17,10.53,8.33,3.27,36.16
			c-4.54,17.38-7.59,26.23-8.12,27.56c0,0-21.3-11.58-50.58-10.69C563.59,674.49,572.13,651.76,578.46,638.65z"/>
		<path class="st6" d="M580.19,654.22c-27.93,52.43-21.43,103.51-23.15,165.84c-0.17,6.13-0.6,11.07,0.09,15.18
			c1.58,9.36,11.52,13.42,14.64-0.66c5.41-24.42,26.9-89.41,45.34-159C622.91,658.18,598.44,619.97,580.19,654.22z"/>
		<path class="st10" d="M582.19,642.45c0,0,12.66-32.44,37.76-25.71c8.38,2.24,10.1,12.24,2.72,38.77c-5.11,18.4-7.52,27.88-8,29.3
			c0,0-18.21-12-43.52-10.55L582.19,642.45z"/>
		<path class="st19" d="M622.54,638.23c0,0-14.9,2.64-20.18-3.16c0,0,2.37,9.76,7.65,11.6c5.27,1.85,10.15-3.43,10.15-3.43
			l-4.75-0.53L622.54,638.23z"/>
	</g>
	<g>
		<path class="st6" d="M553.37,849.1c2.28,20.71,4.62,47.24,48.69,42.2c22.35-2.56-5.3-28.52-13.34-38.18
			c0,0-14.04-15.87-15.23-18.4c-3.03-6.46-13.66-8.06-19.41,5.07C551.1,846.57,553.04,846.09,553.37,849.1z"/>
		<path class="st16" d="M544.21,861.62c-0.69,3.64,1.14,5.12,6.26,8.38c10.76,6.86,28.11,12.84,45.57,11
			c21.93-2.3-22.55-10.68-26.51-15.82c-3.96-5.14-5.55-15.42-8.7-22.35c-3.69-8.11-4.75-14.04-8.31-7.71
			C548.96,841.44,544.99,857.51,544.21,861.62z"/>
	</g>
	<path class="st12" d="M548.3,840.78c0,0-0.69,0.56,3.3,8.18c15.03,28.75,22.65,29,41.27,28.88c12.27-0.08-6.86-24-6.86-24
		L574.27,836c0,0,9.96,11.9,21.16,24.63c6.89,7.82,15.13,14.44,18.06,19.24c5.09,7.07,10.7,18.43,4.69,19.73
		c-20.18,4.35-46.93-0.84-51.89-3.36s-5.54-9.51-11.8-16.81c-2.37-2.77-8.57-5.54-8.97-8.04c-0.42-6.45-2.41-11.08-0.95-18.79
		C546.12,844.43,548.3,840.78,548.3,840.78z"/>
</g>
<g id="left_leg">
	<g>
		<g>
			<path class="st6" d="M700.43,810.05c-3.63,13.95-0.24,16.53,3.6,20.95c28.45,32.8,35.17,20.12,39.72,22.28
				c15.17,7.21,15.63-10.96,8.78-14.76c-6.59-3.66-17.3-18.48-25.62-26.05c-3.89-3.54-4.18-5.75-9.49-6.46
				C711.9,805.28,701.97,804.16,700.43,810.05z"/>
		</g>
		<g>
			<path class="st16" d="M700.52,827.39c15.97,41.35,50.18,30.67,56.92,27.53c2.78-1.3-15.16-21.53-15.16-21.53
				s-20.25-5.42-31.19-10.29C699.63,818,695.77,815.11,700.52,827.39z"/>
		</g>
		<path class="st12" d="M699.34,810.61c1.15-2.13,1.37-1.16,1.74,0.39c2.86,12,3.84,16.8,13.44,27.11
			c3.27,3.51,3.19,11.35,30.54,12.72c11.6,0.58-2.78-17.43-2.78-17.43l-16.25-21.9l4.83,4.73c0,0,19.08,21.26,26.56,26.17
			c7.33,4.81,15.81,27.79,8.81,28.45c-17.87,1.68-34.91-0.21-49.14-3.65c-6.63-1.98-10.59-15.9-13.14-16.8c0,0-6.97-5.02-7.04-8.75
			C696.85,838.05,697.73,813.59,699.34,810.61z"/>
	</g>
	<g>
		<path class="st10" d="M728.56,632.43c0,0,11.08-81.71-4.35-123.24c-9.23-24.86-26.59-29.46-45.39-28.86
			c-18.8,0.6-22.64,15.39-19.85,31.22c2.79,15.83,15.89,102.43,22.51,122.26c7.11,21.3,21.15,19.77,30.2,19.73
			C722.21,653.48,726.3,647.97,728.56,632.43z"/>
		<path class="st19" d="M696.12,569.66c7.12-4.75,35.93-7.11,35.93-7.11c-0.29-18.87-2.29-38.4-7.85-53.36
			c-9.23-24.86-26.59-29.46-45.39-28.86c-18.8,0.6-22.64,15.39-19.85,31.22c1.21,6.87,4.36,27.08,8.09,49.38
			c0,0,8.88,52.26,12.44,64.26c0.68-0.35,2.9-12.79,6.33-32.57C688.43,585.7,689,574.41,696.12,569.66z"/>
	</g>
	<g>
		<path class="st6" d="M682.38,650.73c-14.64,48.88-0.36,71.9,18.5,160.57c1.74,8.18,18.36,13.98,22.64,1.66
			c0.71-2.04,0.4-5.93,0.4-10.38c0-32.88,8.78-114.21,3.39-145.7C723.14,632.59,689.59,626.64,682.38,650.73z"/>
		<path class="st16" d="M676.19,681.91c-0.3,8.26,0.09,20.28,3.38,37.02c4.92,25.06,13.5,56.52,14.57,61.98
			c1.78,9.1,6.82,31.45,8.21,37.09c0.87,3.53,11.57,7.22,11.57,7.22s-6.75-19.11-8.31-24c-3.22-10.12-19-81.85-22.61-117.87
			C682.59,679.19,676.49,673.56,676.19,681.91z"/>
		<path class="st10" d="M678.76,641.46c5.57-16.94,13.16-20.63,26.54-20.95c11.27-0.27,20.74-0.91,21.83,25.63
			c0.71,17.31,1.38,29.91,2.21,37.06c0,0-14.6-5.96-53.36,0.2C675.99,683.4,675.07,652.69,678.76,641.46z"/>
		<path class="st19" d="M678.76,641.46c1.16-3.33,1.41,8.08,1.41,8.08l2.86,32.9c0,0-1.57,0.09-7.04,0.96
			C675.99,683.4,674.91,663.56,678.76,641.46z"/>
	</g>
	<path class="st19" d="M723.6,642.03c0,0-13.55-0.51-18.9-3.48S714.63,656.4,723.6,642.03z"/>
</g>
<g id="torso">
	<path class="st7" d="M679.51,413.84c-16.89,17.72-66.73-0.63-68.84-17.46c-0.9-7.16-3.49-23.79-11.08-54.15
		c-4.75-18.99-5.54-25.21-3.43-27.88c5.54-7.01,26.39-9.5,47.74-12.73c35.21-5.34,37.71,3.09,49.32,19.45
		C707.36,341.02,712.74,378.98,679.51,413.84z"/>
	<path class="st20" d="M622.14,343.37c-16.89,17.72-9.36,69.84-11.47,53.01c-0.9-7.16-3.49-23.79-11.08-54.15
		c-4.75-18.99-5.54-25.21-3.43-27.88c5.54-7.01,26.39-9.5,47.74-12.73c35.21-5.34,37.68,2.98,49.95,20.09
		C708.09,341.58,655.37,308.51,622.14,343.37z"/>
	<path class="st20" d="M612.25,379.77c-2.64,9.89-2.15,35.14-1.32,20.04c0.4-7.2-11.34-59.16-11.34-59.16l54.59-19.17l-35.87,32.44
		C618.32,353.92,614.89,369.88,612.25,379.77z"/>
	<path class="st7" d="M605.13,405.09c0,0-70.06,98.14-75.03,111.05c-4.98,12.95-21.19,29.57-20.49,36.37
		c4.67-12.93,47.32-8.71,55.01-11.18c0,0-15.61-10.29-2.43-15.03s43.26-5.26,60.94-4.96c52.78,0.92,113.89,11.06,131.85,42.64
		c0,0-30.07-147.77-71.76-179.91C642.38,352.57,605.13,405.09,605.13,405.09z"/>
	<path class="st20" d="M689,329.33c6.92,3.76,13.12,11.6,13.12,11.6s-1.25-8.84-7.38-17.54c-4.62-6.56-21.56,2.37-21.56,2.37
		S684.61,326.95,689,329.33z"/>
	<g>
		<path class="st21" d="M680.64,398.45c-10.43,8.63-61.6,6.77-53.88-15.2c3.69-10.52,27.02-23.43,43.78-25.36
			C698.17,354.71,703.24,379.77,680.64,398.45z"/>
		<path class="st21" d="M728.56,517.44l-98.11-7.91c-24.47,0-56.97-44.31-49.05-56.97c7.91-12.66,40.62-53.27,40.62-53.27
			c3.43-16.88,9.29-29.54,33.76-29.54c0,0,27.96,1.58,39.56,32.18c0,0,30.07,45.49,34.81,80.31
			C733.63,507.77,728.56,517.44,728.56,517.44z"/>
		<path class="st21" d="M611.01,506.04c-9.11,0.64-17.12,4.69-25.49-21.32C585.53,484.72,594.75,498.02,611.01,506.04z"/>
		<path class="st7" d="M582.45,443.07c0,0,2.64,20.04,11.6,33.23c0,0-7.91-22.68-7.38-36.4S582.45,443.07,582.45,443.07z"/>
		<path class="st7" d="M723.14,519.11c0.35-5.18,2.22-21.59-1.35-29.83c0,0,7.64,13.22,7.27,26.83
			C728.7,529.72,722.79,524.29,723.14,519.11z"/>
		<path class="st7" d="M608.92,414.85c0,0,11.22-17.71,32.93-25.09c0,0-25.92,3.21-35.14,15.86S608.92,414.85,608.92,414.85z"/>
	</g>
</g>
<g id="neck">
	<path class="st6" d="M653.18,319.37l-2.3,0.35c-5.83,0.89-11.28-3.11-12.17-8.94l-3.4-22.21c-0.89-5.83,3.11-11.28,8.94-12.17
		l2.3-0.35c5.83-0.89,11.28,3.11,12.17,8.94l3.4,22.21C663.02,313.03,659.01,318.48,653.18,319.37z"/>
	<path class="st16" d="M649.93,293.27l-3.84,0.59c-5.41,0.83-10.46-2.88-11.29-8.29l-3.63-23.75c-0.83-5.41,2.88-10.46,8.29-11.29
		l3.84-0.59c5.41-0.83,10.46,2.88,11.29,8.29l3.63,23.75C659.05,287.39,655.34,292.45,649.93,293.27z"/>
</g>
<g id="right_arm">
	<g>
		<path class="st6" d="M570.71,352.87c-6.73,16.88-17.59,47.04-20.63,52.16s-3.14,12.94,4.96,16.94c8.09,4.01,14.2,1.99,17.85-2.36
			s24.46-39.58,28.81-53.69c3.42-11.08,1.11-23.24-4.88-26.11C590.83,336.94,577.44,335.99,570.71,352.87z"/>
		<path class="st16" d="M570.71,352.87c-6.73,16.88-17.59,47.04-20.63,52.16c-0.93,1.57-1.59,3.6-1.7,4.71
			c-0.24,2.49,1.57,2.71,4.1-0.3c2-2.38,16.7-32.23,21.79-48.7C578.46,347.17,573.75,345.24,570.71,352.87z"/>
		<path class="st17" d="M607.24,312.78c-8.78-3.04-20.7,1.71-29.01,21.89c-4.36,10.6-10.42,24.79-10.42,24.79
			s13.72,2.16,31.38,13.19c0,0,5.61-11.08,9.63-21.36C617.26,329.66,614.1,315.15,607.24,312.78z"/>
		<path class="st13" d="M607.24,312.78c-8.78-3.04-20.7,1.71-29.01,21.89c-4.36,10.6-10.42,24.79-10.42,24.79l6.2,1.32l13.32-11.27
			l24.13-6.66C616.82,325,613.35,314.9,607.24,312.78z"/>
	</g>
	<path class="st6" d="M499.69,467.06c0,0-8.52,8.8-5.74,13.78c2.62,4.67,12,8.48,18.69,3.05s28.19-19.54,56.77-57.97
		c12.19-16.38-11.49-27.79-20.95-17.44S499.69,467.06,499.69,467.06z"/>
	<path class="st16" d="M508.08,457.84l21.1-12.4l25.49-40.52c0,0-3.49,0.52-6.21,3.57C539.13,418.95,508.08,457.84,508.08,457.84z"
		/>
	<g>
		<path class="st16" d="M479.86,496.75c0,0-9.22,15.89-11.68,19.78c-2.15,3.39-5.35,0.48-4.36-1.82S471.59,496.03,479.86,496.75z"/>
		<path class="st16" d="M474.06,496.75c0,0-9.22,15.89-11.68,19.78c-2.15,3.39-5.35,0.48-4.36-1.82
			C459.01,512.41,465.78,496.03,474.06,496.75z"/>
		<path class="st6" d="M513.27,479.74c-0.86,5.55-4.32,14.13-12.73,23.32c-6.49,7.09-7.96,10.67-10.33,15.81
			c-0.6,1.29-2.18,2.9-3.76,4.35c-5.04,4.62-7.09,3.9-7.61,0.83c-0.6-3.6,1.18-6.32,4.34-11.11c1.62-2.46,1.92-5.41,2.47-7.02
			c0.71-2.04,0.99-6.92-4.92-7.94c-6.07-1.05-9.38-9.01-7.35-11.94c3.56-5.14,26.81-18.43,29.49-17.66
			C508.81,469.49,514.13,474.19,513.27,479.74z"/>
		<path class="st6" d="M482.72,490.52c2.01,0.57,4.65,4.51,1.94,6.93s-16.85,9.64-20.76,14.37c-4.65,5.63-7.21,10.55-10.1,12.05
			c-3.69,1.91-8.42,1.66-4.6-4.21c5.41-8.31,9.42-17.31,18.7-21.91C477.19,493.15,480.71,489.95,482.72,490.52z"/>
		<path class="st6" d="M482.23,497.48c4.51-4.65-0.49-16.08-3.8-15.14c-3.31,0.94-18.42,13.3-21.93,14.91s-11.46,13.25-13.21,17.39
			c-1.76,4.14-1.91,6.7,2.93,5.47s10.5-14.98,17.14-18.45S477.72,502.13,482.23,497.48z"/>
	</g>
	<path class="st13" d="M598.27,349.7c0,0-14.75,2.95-20.02,6.16c-5.27,3.21-3.98,4.88-3.98,4.88L598.27,349.7z"/>
</g>
<g id="cape-front">
	<g>
		<path class="st15" d="M668.82,317.26c-29.08,19.78-95.05,26.64-94.84,26.02c2.11-6.35,16.38-37.89,31.15-40.53
			C615.04,302.72,653.86,303.09,668.82,317.26z"/>
		<path class="st14" d="M678.98,301.18c-9.49-2.11-29.02,13.54-30.08,17.76s31.79-2.33,91.53,32.88
			C760.95,363.91,694.27,304.87,678.98,301.18z"/>
		<circle class="st10" cx="656.96" cy="316.87" r="2.74"/>
	</g>
</g>
<g id="head">
	<g>
		<path class="st13" d="M681.85,174.38c3,1.01,2.65,15.92-4.81,14.94c-7.02-0.92-14.74-3.07-12.38-7.4
			C667.01,177.6,678.85,173.37,681.85,174.38z"/>
		<path class="st22" d="M682.66,179.23c0,0-1.21,9.02-3.78,9.39c-2.58,0.36-0.33-3.87,0.26-9.76S683.07,175.44,682.66,179.23z"/>
		<path class="st13" d="M663.41,185.6c0,0,13.14,11.23,25.63,15.48c9.44,3.21,16.68,3.35,16.68,3.35l-2.2-2.97l4.03-3.35
			c0,0-16.85-0.15-40.91-14.63L663.41,185.6z"/>
		<path class="st13" d="M669.86,189.69c0,0,9.82,13.23,20.89,19.54c8.37,4.77,15.41,6.16,15.41,6.16l-1.36-3.27l4.85-2.56
			c0,0-16.45-3.07-36.06-21.36L669.86,189.69z"/>
		
			<ellipse transform="matrix(0.8244 -0.566 0.566 0.8244 -29.9074 378.6117)" class="st16" cx="595.25" cy="237.51" rx="13.37" ry="15.22"/>
		<path class="st10" d="M646.55,188.03c3.34,5.88-7.95,12.94-19.99,19.78c-12.03,6.84-24.5,7.62-27.84,1.73
			c-3.34-5.88,3.7-16.2,15.73-23.04C626.49,179.67,643.21,182.15,646.55,188.03z"/>
		<path class="st16" d="M593.05,229.13c0.44-35.69,29.47-46.3,36.68-47.68c35.96-6.9,52.14,14.41,59.01,52.13
			c5.02,27.56-11.29,35.3-27.61,41.53C641.49,282.61,592.51,273.71,593.05,229.13z"/>
		<path class="st6" d="M604.91,240.64c1.93-27.03,27.91-36.33,34.31-37.69c0,0,34.93,8.49,41.66,13.78
			c6.73,5.29,7.97,23.07,7.97,23.07c3.22,20.63-11.45,27.2-26.08,32.64C645.19,278.97,602.5,274.39,604.91,240.64z"/>
		<path class="st7" d="M615.87,194.56c18.9-14.14,49.08-8.43,49.08-8.43s-28.6-22.74-54.64,0.35
			c-23.36,20.71-16.91,39.06-13.62,50.02C596.69,236.5,593.53,211.28,615.87,194.56z"/>
	</g>
</g>
<g id="eyes">
	
		<ellipse transform="matrix(0.9843 -0.1765 0.1765 0.9843 -28.7902 115.1445)" class="st23" cx="632.96" cy="219.43" rx="3.82" ry="7.13"/>
	
		<ellipse transform="matrix(0.9787 -0.2053 0.2053 0.9787 -29.8914 141.8664)" class="st23" cx="668.88" cy="215.02" rx="3.21" ry="6.54"/>
	<path class="st24" d="M631.41,199.24c0,0-5.07,0.93-6.21,5.55"/>
	<path class="st24" d="M669.58,197.97c0,0-3.31-2.84-6.74-2.36"/>
</g>
</svg>
