<svg width="495" height="433" viewBox="0 0 495 433" fill="none" xmlns="http://www.w3.org/2000/svg">
<path d="M375.332 127.666C375.332 117.801 368.183 109.619 358.797 107.923L340.208 63.0512C342.541 59.7064 343.828 55.7596 343.828 51.5973C343.828 46.2308 341.734 41.1798 337.94 37.3863C331.21 30.6505 320.046 29.9201 312.305 35.135L267.404 16.5318C265.713 7.15476 257.531 0 247.666 0C237.801 0 229.619 7.1543 227.923 16.5355L183.021 35.1387C175.289 29.9253 164.126 30.6593 157.392 37.3899C153.598 41.1835 151.504 46.2294 151.504 51.6009C151.504 55.7632 152.786 59.71 155.119 63.0494L136.53 107.921C127.155 109.619 120 117.801 120 127.666C120 137.531 127.154 145.713 136.535 147.404L155.128 192.286C149.688 200.11 150.415 210.955 157.39 217.937C161.183 221.731 166.229 223.825 171.601 223.825C175.763 223.825 179.71 222.538 183.055 220.204L227.926 238.794C229.618 248.183 237.8 255.332 247.666 255.332C257.531 255.332 265.713 248.183 267.403 238.797L312.27 220.208C315.609 222.541 319.561 223.829 323.724 223.829C329.095 223.829 334.141 221.734 337.935 217.94C341.728 214.147 343.823 209.101 343.823 203.729C343.823 199.567 342.535 195.615 340.202 192.275L358.791 147.409C368.183 145.714 375.331 137.531 375.331 127.666H375.332ZM313.697 186.47L297.08 169.858C306.904 168.214 314.427 159.717 314.427 149.431C314.427 144.789 312.915 140.387 310.133 136.771C310.251 135.754 310.311 134.749 310.311 133.768C310.311 133.431 310.265 133.104 310.254 132.772H335.87C337.535 139.06 342.135 144.13 348.152 146.412L331.944 185.538C326.127 183.048 319.244 183.374 313.697 186.469L313.697 186.47ZM252.773 215.868V170.2H282.983L306.427 193.65C303.154 199.278 302.828 206.104 305.467 211.977L266.417 228.154C264.131 222.134 259.06 217.539 252.773 215.868H252.773ZM228.921 228.155L189.866 211.978C192.506 206.112 192.175 199.278 188.906 193.652L212.356 170.202L242.561 170.2V215.868C236.268 217.539 231.203 222.134 228.921 228.156L228.921 228.155ZM163.351 185.444L147.179 146.409C153.194 144.131 157.794 139.06 159.46 132.773H185.474C185.413 133.539 185.356 134.305 185.356 135.087C185.356 135.571 185.372 136.052 185.403 136.528C182.487 140.189 180.904 144.683 180.904 149.428C180.904 159.717 188.436 168.214 198.257 169.855L181.691 186.42C178.653 184.643 175.221 183.622 171.605 183.622C168.702 183.626 165.915 184.285 163.351 185.444L163.351 185.444ZM171.603 71.7028C175.213 71.7028 178.645 70.6823 181.684 68.9101L216.157 103.384C215.668 104.538 215.187 105.698 214.839 106.928C203.186 106.341 193.086 112.904 188.305 122.564L159.465 122.566C157.8 116.275 153.199 111.208 147.182 108.927L163.355 69.886C165.919 71.0437 168.701 71.7027 171.603 71.7027L171.603 71.7028ZM242.558 39.4658V85.234C234.397 85.5457 227.043 89.0135 221.81 94.5951L188.903 61.6938C190.681 58.6553 191.696 55.2235 191.696 51.6132C191.696 48.7119 191.037 45.9244 189.878 43.3615L228.918 27.1894C231.2 33.2025 236.265 37.7975 242.558 39.4681L242.558 39.4658ZM266.409 27.1785L305.445 43.3505C304.28 45.9135 303.626 48.7025 303.626 51.6023C303.626 55.2178 304.647 58.6444 306.424 61.6829L268.983 99.1296C265.204 93.2218 259.465 88.7316 252.775 86.5768V39.459C259.057 37.7937 264.128 33.1933 266.409 27.1766L266.409 27.1785ZM331.98 69.8863L348.152 108.927C342.132 111.21 337.535 116.276 335.869 122.566H307.844C303.116 112.16 292.023 104.622 278.838 103.723L313.64 68.9156C316.684 70.6931 320.116 71.7136 323.726 71.7136C326.629 71.703 329.416 71.0439 331.98 69.8863V69.8863ZM285.117 159.986H285.065H201.663C195.841 159.986 191.112 155.247 191.112 149.43C191.112 146.581 192.236 143.911 194.279 141.909C195.427 140.78 195.974 139.182 195.764 137.583C195.657 136.765 195.57 135.934 195.57 135.086C195.57 125.169 203.633 117.106 213.541 117.106C214.894 117.106 216.273 117.279 217.758 117.637C219.203 117.968 220.709 117.683 221.91 116.83C223.11 115.977 223.887 114.639 224.029 113.168C225.025 103.011 233.492 95.3504 243.71 95.3504C252.907 95.3504 261.027 101.867 263.018 110.844C263.319 112.192 264.153 113.362 265.327 114.087C266.5 114.806 267.936 115.022 269.259 114.689C271.557 114.106 273.886 113.816 276.195 113.816C289.374 113.816 300.104 122.768 300.104 133.778C300.104 134.875 299.976 136.04 299.716 137.26C299.352 138.961 299.874 140.728 301.105 141.948C303.112 143.944 304.215 146.605 304.215 149.439C304.215 155.261 299.48 159.995 293.663 159.995H285.116L285.117 159.986ZM365.118 127.666C365.118 133.114 360.685 137.552 355.231 137.552C349.777 137.552 345.344 133.114 345.344 127.666C345.344 122.217 349.777 117.784 355.226 117.779H355.236H355.247C360.69 117.784 365.117 122.217 365.117 127.666H365.118ZM330.719 44.6099C332.584 46.4782 333.615 48.961 333.615 51.6005C333.615 54.24 332.584 56.7226 330.719 58.5911C326.996 62.3242 320.48 62.3295 316.738 58.5911C314.873 56.7228 313.842 54.24 313.842 51.6005C313.842 48.9609 314.873 46.4783 316.738 44.6099C318.602 42.7415 321.089 41.7139 323.728 41.7139C326.368 41.7139 328.85 42.7451 330.719 44.6099ZM247.663 10.2108C253.111 10.2108 257.55 14.6438 257.55 20.0976C257.55 25.5512 253.117 29.9894 247.663 29.9894C242.209 29.9894 237.776 25.551 237.776 20.0976C237.776 14.644 242.215 10.2108 247.663 10.2108V10.2108ZM164.607 44.6099C166.476 42.7415 168.958 41.7139 171.598 41.7139C174.237 41.7139 176.72 42.7451 178.589 44.6099C180.453 46.4746 181.479 48.961 181.479 51.6005C181.479 54.2453 180.453 56.7226 178.589 58.5911C174.855 62.3242 168.344 62.3242 164.607 58.5911C162.739 56.7228 161.711 54.24 161.711 51.6005C161.711 48.9609 162.743 46.4783 164.607 44.6099V44.6099ZM130.208 127.666C130.208 122.217 134.636 117.784 140.084 117.779H140.089H140.1C145.548 117.784 149.981 122.217 149.981 127.666C149.981 133.114 145.543 137.552 140.09 137.552C134.641 137.552 130.208 133.114 130.208 127.666H130.208ZM164.613 210.721C160.757 206.86 160.757 200.594 164.613 196.74C166.481 194.875 168.964 193.844 171.603 193.844C174.248 193.844 176.726 194.875 178.594 196.74C182.445 200.596 182.445 206.867 178.594 210.721C174.856 214.449 168.341 214.449 164.613 210.721V210.721ZM247.659 245.12C242.211 245.12 237.773 240.687 237.773 235.234C237.773 229.78 242.211 225.342 247.659 225.342C253.108 225.342 257.546 229.78 257.546 235.234C257.546 240.687 253.108 245.12 247.659 245.12ZM330.715 210.721C326.987 214.449 320.462 214.449 316.734 210.721C312.883 206.865 312.878 200.594 316.734 196.74C318.599 194.875 321.085 193.844 323.725 193.844C326.364 193.844 328.852 194.875 330.715 196.74C332.58 198.605 333.611 201.091 333.611 203.731C333.611 206.37 332.58 208.853 330.715 210.721Z" fill="white"/>
<path d="M14.375 402H39.0625C65.875 402 81.625 385.312 81.625 356.875C81.625 328.5 65.8125 311.812 39.0625 311.812H14.375C10.9375 311.812 8.75 314.062 8.75 317.625V396.188C8.75 399.75 10.9375 402 14.375 402ZM20 391.875V321.938H38.3125C58.8125 321.938 70.125 334.438 70.125 357C70.125 379.375 58.75 391.875 38.3125 391.875H20ZM112.875 403.125C121.625 403.125 129.938 398.25 133.812 390.812H134.062V397.625C134.062 400.875 136.188 403.125 139.25 403.125C142.25 403.125 144.375 400.875 144.375 397.625V357.062C144.375 344.125 134.75 335.875 119.5 335.875C108.938 335.875 99.4375 340.562 95.75 347.688C94.875 349.25 94.4375 350.812 94.4375 352.188C94.4375 355.125 96.4375 357.062 99.25 357.062C101.312 357.062 102.75 356.25 103.75 354.438C107.375 348 112.188 345.438 119.25 345.438C128.25 345.438 133.5 350.188 133.5 358.125V363.562L114.812 364.625C99.8125 365.5 91.25 372.5 91.25 383.625C91.25 395.312 99.9375 403.125 112.875 403.125ZM115.312 393.875C107.5 393.875 102.312 389.812 102.312 383.625C102.312 377.5 107.312 373.625 116.062 373.062L133.5 372V377.312C133.5 386.688 125.562 393.875 115.312 393.875ZM161.688 387C161.688 397.375 166.938 402.5 177.438 402.5H178.125C184.188 402.5 186.062 400.75 186.062 397.438C186.062 394.875 184.438 393.438 180.875 393.188L179.938 393.125C174.5 392.75 172.562 390.125 172.562 384.625V345.938H180.938C184.062 345.938 185.812 344.312 185.812 341.438C185.812 338.625 184.062 337 180.938 337H172.562V325.875C172.562 322.438 170.312 320.062 167.125 320.062C163.938 320.062 161.688 322.438 161.688 325.875V337H156.25C153.125 337 151.375 338.625 151.375 341.438C151.375 344.312 153.125 345.938 156.25 345.938H161.688V387ZM214.5 403.125C223.25 403.125 231.562 398.25 235.438 390.812H235.688V397.625C235.688 400.875 237.812 403.125 240.875 403.125C243.875 403.125 246 400.875 246 397.625V357.062C246 344.125 236.375 335.875 221.125 335.875C210.562 335.875 201.062 340.562 197.375 347.688C196.5 349.25 196.062 350.812 196.062 352.188C196.062 355.125 198.062 357.062 200.875 357.062C202.938 357.062 204.375 356.25 205.375 354.438C209 348 213.812 345.438 220.875 345.438C229.875 345.438 235.125 350.188 235.125 358.125V363.562L216.438 364.625C201.438 365.5 192.875 372.5 192.875 383.625C192.875 395.312 201.562 403.125 214.5 403.125ZM216.938 393.875C209.125 393.875 203.938 389.812 203.938 383.625C203.938 377.5 208.938 373.625 217.688 373.062L235.125 372V377.312C235.125 386.688 227.188 393.875 216.938 393.875ZM273.688 402.875C277.125 402.875 279.312 400.625 279.312 397.062V321.938H303.312C306.5 321.938 308.688 319.875 308.688 316.875C308.688 313.875 306.5 311.812 303.312 311.812H244.062C240.875 311.812 238.688 313.875 238.688 316.875C238.688 319.875 240.875 321.938 244.062 321.938H268.062V397.062C268.062 400.625 270.25 402.875 273.688 402.875ZM309.312 426.312C320.062 426.312 325.375 421.5 331 406.562L355 343.75C355.375 342.688 355.562 341.688 355.562 340.875C355.562 337.938 353.375 335.875 350.25 335.875C347.562 335.875 346.125 337 345.125 339.875L327.125 391.125H326.938L309 339.875C308 337 306.375 335.875 303.812 335.875C300.688 335.875 298.375 337.875 298.375 340.875C298.375 341.688 298.562 342.688 298.938 343.75L321.312 402.062L319.812 406.625C317.25 414.5 313.312 417 309.188 417C307.5 417 307.062 416.938 305.5 416.938C302.75 416.938 301.125 418.562 301.125 420.938C301.125 424.375 304.062 426.312 309.312 426.312ZM370.625 424.938C373.812 424.938 376.062 422.562 376.062 419.125V391.438H376.312C380.188 398.562 387.688 403.125 397 403.125C413.375 403.125 424.562 389.875 424.562 369.5C424.562 349.125 413.312 335.875 396.75 335.875C387.312 335.875 379.75 340.688 375.75 348H375.5V341.375C375.5 338.125 373.375 335.875 370.375 335.875C367.312 335.875 365.188 338.125 365.188 341.375V419.125C365.188 422.562 367.438 424.938 370.625 424.938ZM394.625 393.562C383.5 393.562 376 384 376 369.5C376 355.062 383.5 345.438 394.625 345.438C406.188 345.438 413.438 354.812 413.438 369.5C413.438 384.25 406.188 393.562 394.625 393.562ZM462.812 403.125C474.688 403.125 483.812 398.125 488 389.312C488.5 388.125 488.812 387 488.812 386.125C488.812 383.25 486.875 381.375 484 381.375C482.312 381.375 481.062 382 479.938 383.562C474.875 390.938 470.125 393.688 462.375 393.688C450.75 393.688 443.562 385.562 443.562 372.438H484.188C487.938 372.438 490.188 370.062 490.188 366.125C490.188 348.312 478.5 335.875 461.875 335.875C443.938 335.875 432.375 349.25 432.375 369.75C432.375 390.75 443.625 403.125 462.812 403.125ZM443.625 363.938C444.312 352.75 451.562 345.312 461.688 345.312C471.75 345.312 478.688 352.688 478.938 363.938H443.625Z" fill="white"/>
</svg>
